<svg xmlns="http://www.w3.org/2000/svg" width="165" height="47" viewBox="0 0 165 47" fill="none"><g clip-path="url(#clip0_301_9088)"><path d="M8.37684 46.9117H7.34836L6.11417 44.2512H2.40134L1.16716 46.9117H0.138672L3.80008 39.1173H4.72572L8.37684 46.9117ZM4.2629 40.3021L2.85387 43.3367H5.68221L4.2629 40.3021Z" fill="white" stroke="white" stroke-width="0.34" stroke-miterlimit="10"/><path d="M16.3426 46.9117H11.4573L10.5522 45.9971V39.1173H11.4573V45.6334L11.8687 45.9971H15.9312L16.3426 45.5814V39.1173H17.2477V45.9452L16.3426 46.9117Z" fill="white" stroke="white" stroke-width="0.34" stroke-miterlimit="10"/><path d="M23.5573 46.9117H22.6523V40.0319H19.8342V39.1173H26.3754V40.0319H23.5573V46.9117Z" fill="white" stroke="white" stroke-width="0.34" stroke-miterlimit="10"/><path d="M35.7501 46.9117H34.845V43.3263H29.898V46.9117H28.9929V39.1173H29.898V42.4117H34.845V39.1173H35.7501V46.9117Z" fill="white" stroke="white" stroke-width="0.34" stroke-miterlimit="10"/><path d="M45.8138 45.9556L44.9087 46.9117H39.4886L38.5835 45.9556V40.0734L39.4886 39.1173H44.9087L45.8138 40.0734V45.9556ZM44.9087 45.5814V40.4476L44.5384 40.0319H39.8588L39.4886 40.4476V45.5814L39.8177 45.9971H44.5796L44.9087 45.5814Z" fill="white" stroke="white" stroke-width="0.34" stroke-miterlimit="10"/><path d="M54.9778 46.9117H53.9596L52.3037 43.503H49.3108V46.9117H48.4058V39.1173H54.011L54.9469 40.0423V42.5572L54.011 43.503H53.3014L54.9778 46.9117ZM54.0419 42.1831V40.3852L53.651 40.0319H49.3108V42.5884H53.651L54.0419 42.1831Z" fill="white" stroke="white" stroke-width="0.34" stroke-miterlimit="10"/><path d="M58.7159 46.9117H57.8108V39.1173H58.7159V46.9117Z" fill="white" stroke="white" stroke-width="0.34" stroke-miterlimit="10"/><path d="M65.0307 46.9117H64.1257V40.0319H61.3076V39.1173H67.8488V40.0319H65.0307V46.9117Z" fill="white" stroke="white" stroke-width="0.34" stroke-miterlimit="10"/><path d="M73.9325 46.9117H73.0274V43.3263L69.7466 39.1173H70.9396L73.4903 42.4013L75.9998 39.1173H77.1928L73.9325 43.3263V46.9117Z" fill="white" stroke="white" stroke-width="0.34" stroke-miterlimit="10"/><path d="M84.7212 46.9117H83.8162V39.1173H89.4008L90.3265 40.0111V42.5365L89.4008 43.4822H84.7212V46.9117ZM89.4214 42.1675V40.3696L89.0306 40.0267H84.7212V42.5624H89.0306L89.4214 42.1675Z" fill="white" stroke="white" stroke-width="0.34" stroke-miterlimit="10"/><path d="M99.5316 46.9117H98.5031L97.269 44.2512H93.5561L92.3219 46.9117H91.2935L94.9549 39.1173H95.8805L99.5316 46.9117ZM95.4177 40.3021L94.0087 43.3367H96.837L95.4177 40.3021Z" fill="white" stroke="white" stroke-width="0.34" stroke-miterlimit="10"/><path d="M108.253 46.9117H107.235L105.579 43.503H102.586V46.9117H101.681V39.1173H107.286L108.222 40.0423V42.5572L107.286 43.503H106.577L108.253 46.9117ZM107.317 42.1831V40.3852L106.926 40.0319H102.586V42.5884H106.926L107.317 42.1831Z" fill="white" stroke="white" stroke-width="0.34" stroke-miterlimit="10"/><path d="M114.347 46.9117H113.442V40.0319H110.624V39.1173H117.165V40.0319H114.347V46.9117Z" fill="white" stroke="white" stroke-width="0.34" stroke-miterlimit="10"/><path d="M126.596 46.9117H125.701L120.682 40.6138H120.662V46.9117H119.757V39.1173H120.662L125.671 45.4152H125.691V39.1173H126.596V46.9117Z" fill="white" stroke="white" stroke-width="0.34" stroke-miterlimit="10"/><path d="M136.007 46.9117H129.435V39.1173H135.781V40.0319H130.34V42.4221H133.189V43.3367H130.34V45.9971H136.007V46.9117Z" fill="white" stroke="white" stroke-width="0.34" stroke-miterlimit="10"/><path d="M145.196 46.9117H144.178L142.522 43.503H139.529V46.9117H138.624V39.1173H144.23L145.165 40.0423V42.5572L144.23 43.503H143.52L145.196 46.9117ZM144.26 42.1831V40.3852L143.87 40.0319H139.529V42.5884H143.87L144.26 42.1831Z" fill="white" stroke="white" stroke-width="0.34" stroke-miterlimit="10"/><path d="M153.172 46.9117H147.536V45.9971H152.781L153.172 45.5814V43.7108L152.781 43.2847H148.513L147.608 42.3806V40.0526L148.513 39.1173H153.902V40.0319H148.894L148.513 40.3852V42.0272L148.894 42.3702H153.172L154.077 43.2847V45.966L153.172 46.9117Z" fill="white" stroke="white" stroke-width="0.34" stroke-miterlimit="10"/><path d="M131.904 11.9721C130.073 11.9721 128.572 10.4548 128.572 8.60498V3.36716C128.572 1.5173 130.073 0 131.904 0H147.053C148.884 0 151.46 1.05484 152.777 2.34351L162.609 11.9929C163.926 13.2816 165 15.8537 165 17.7036V24.1054C165 25.9552 163.941 26.3969 162.65 25.0875L152.078 14.352C150.787 13.0374 148.226 11.9669 146.395 11.9669H131.909L131.904 11.9721Z" fill="white"/><path d="M150.781 15.9732C152.612 15.9732 154.114 17.4906 154.114 19.3404V24.5782C154.114 26.4281 152.612 27.9454 150.781 27.9454H135.493C133.662 27.9454 131.071 26.9061 129.733 25.6383L119.968 16.337C118.636 15.0691 117.541 12.5126 117.541 10.6627V4.26612C117.541 2.41625 118.616 1.95898 119.927 3.25285L130.438 13.6245C131.749 14.9184 134.321 15.9784 136.156 15.9784H150.776L150.781 15.9732Z" fill="white"/></g><defs><clipPath id="clip0_301_9088"><rect width="165" height="47" fill="white"/></clipPath></defs></svg>
